#N canvas 90 69 1090 595 10;
#X floatatom 67 97 0 0 0 0 - - -;
#X floatatom 24 92 0 0 0 0 - - -;
#X obj 2 294 hradio 15 1 0 40 empty empty empty 0 -8 0 10 -262144 -1
-1 0;
#X floatatom 42 237 5 0 0 0 - - -;
#X obj 43 272 s clips;
#X floatatom 447 70 5 0 0 0 - - -;
#X obj 424 204 tgl 15 0 empty empty empty 17 7 0 10 -262144 -1 -1 0
1;
#X obj 498 212 tgl 15 0 empty empty empty 17 7 0 10 -262144 -1 -1 0
1;
#X obj 423 178 == 60;
#X text 401 159 Do central;
#X obj 497 186 == 69;
#X text 480 168 La central;
#X obj 752 35 % 12;
#X obj 614 195 tgl 15 0 empty empty empty 17 7 0 10 -262144 -1 -1 0
1;
#X obj 657 96 == 0;
#X text 795 41 C=0 \, C#=1 \, D=3 \, Eb=4 e etc...;
#X obj 670 184 tgl 15 0 empty empty empty 17 7 0 10 -262144 -1 -1 0
1;
#X obj 689 95 == 1;
#X obj 603 103 pitch;
#X symbolatom 529 137 10 0 0 0 - - -;
#X obj 714 189 tgl 15 0 empty empty empty 17 7 0 10 -262144 -1 -1 0
1;
#X obj 754 197 tgl 15 0 empty empty empty 17 7 0 10 -262144 -1 -1 0
1;
#X obj 722 95 == 2;
#X obj 754 94 == 3;
#X obj 789 175 tgl 15 0 empty empty empty 17 7 0 10 -262144 -1 -1 0
1;
#X obj 846 177 tgl 15 0 empty empty empty 17 7 0 10 -262144 -1 -1 0
1;
#X obj 786 320 tgl 15 0 empty empty empty 17 7 0 10 -262144 -1 -1 0
1;
#X obj 887 178 tgl 15 0 empty empty empty 17 7 0 10 -262144 -1 -1 0
1;
#X obj 787 94 == 4;
#X obj 819 93 == 5;
#X obj 852 93 == 6;
#X obj 884 92 == 7;
#X obj 927 149 tgl 15 0 empty empty empty 17 7 0 10 -262144 -1 -1 0
1;
#X obj 969 189 tgl 15 0 empty empty empty 17 7 0 10 -262144 -1 -1 0
1;
#X obj 1009 138 tgl 15 0 empty empty empty 17 7 0 10 -262144 -1 -1
0 1;
#X obj 917 92 == 8;
#X obj 950 92 == 9;
#X obj 982 91 == 10;
#X obj 1053 179 tgl 15 0 empty empty empty 17 7 0 10 -262144 -1 -1
0 1;
#X obj 1021 91 == 11;
#X obj 440 37 notein;
#X obj 614 230 s e1;
#X obj 714 235 s e2;
#X obj 802 211 s e3;
#X obj 847 249 s e4;
#X obj 887 234 s e5;
#X obj 963 239 s e6;
#X obj 1031 229 s e7;
#X obj 670 264 s e8;
#X obj 32 56 ctlin 0;
#X floatatom 924 368 0 0 0 0 - - -;
#X floatatom 865 368 0 0 0 0 - - -;
#X obj 868 313 ctlin 74;
#X obj 963 474 s controle;
#X floatatom 981 444 5 0 0 0 - - -;
#X obj 932 431 int;
#X obj 751 237 s parar;
#X obj 788 140 sel 1;
#X obj 831 140 sel 1;
#X obj 656 142 sel 1;
#X obj 705 141 sel 1;
#X obj 744 144 sel 1;
#X obj 884 141 sel 1;
#X obj 958 136 sel 1;
#X obj 1036 120 sel 1;
#X obj 877 401 autoscale 10 500;
#X obj 51 201 int;
#X text 834 292 CONTROLE DE FRAMES;
#X text 419 16 CONTROLE DE EFEITOS;
#X obj 68 590 sendOSC;
#X msg 37 470 send /lives/quit;
#X obj 33 640 print OSCin;
#X obj 33 619 dumpOSC 7777;
#X msg 71 379 send /clip/count;
#X msg 158 534 disconnect;
#X msg 101 354 send /effect_key/count;
#X obj 67 566 r OSClives;
#X msg 86 423 send /app/open_status_socket 192.168.0.143 7777;
#X msg 185 480 connect 127.0.0.1 9999;
#X text 5 36 PASSADOR DE CLIPs;
#X text 4 6 INTERFACE CONTROLADORA - LIVES - MIDI;
#X obj 863 122 tgl 15 0 empty empty empty 17 7 0 10 -262144 -1 -1 0
1;
#X obj 500 360 bang;
#X msg 689 382 bang;
#X obj 691 444 s playvideo;
#X msg 920 207 bang;
#X obj 952 271 s stopvideo;
#X obj 41 156 autoscale 0 40;
#X obj 611 142 sel 1;
#X text 43 321 ####OSC### - CONECTA O PD AO LIVES;
#X text 344 481 ####OSC### - CLIQUE PARA LIGAR O OSC;
#X connect 1 0 87 0;
#X connect 3 0 2 0;
#X connect 3 0 4 0;
#X connect 5 0 8 0;
#X connect 5 0 10 0;
#X connect 5 0 12 0;
#X connect 5 0 18 0;
#X connect 8 0 6 0;
#X connect 10 0 7 0;
#X connect 12 0 14 0;
#X connect 12 0 17 0;
#X connect 12 0 22 0;
#X connect 12 0 23 0;
#X connect 12 0 28 0;
#X connect 12 0 29 0;
#X connect 12 0 30 0;
#X connect 12 0 31 0;
#X connect 12 0 35 0;
#X connect 12 0 36 0;
#X connect 12 0 37 0;
#X connect 12 0 39 0;
#X connect 13 0 41 0;
#X connect 14 0 88 0;
#X connect 16 0 48 0;
#X connect 17 0 59 0;
#X connect 18 1 19 0;
#X connect 20 0 42 0;
#X connect 21 0 56 0;
#X connect 22 0 60 0;
#X connect 23 0 61 0;
#X connect 24 0 43 0;
#X connect 25 0 44 0;
#X connect 27 0 45 0;
#X connect 28 0 57 0;
#X connect 29 0 58 0;
#X connect 30 0 81 0;
#X connect 30 0 83 0;
#X connect 31 0 62 0;
#X connect 33 0 46 0;
#X connect 35 0 32 0;
#X connect 35 0 85 0;
#X connect 36 0 63 0;
#X connect 37 0 34 0;
#X connect 38 0 47 0;
#X connect 39 0 64 0;
#X connect 40 0 5 0;
#X connect 49 0 1 0;
#X connect 49 1 0 0;
#X connect 51 0 65 0;
#X connect 52 0 51 0;
#X connect 52 1 50 0;
#X connect 54 0 53 0;
#X connect 55 0 54 0;
#X connect 57 0 24 0;
#X connect 58 0 25 0;
#X connect 59 0 16 0;
#X connect 60 0 20 0;
#X connect 61 0 21 0;
#X connect 62 0 27 0;
#X connect 63 0 33 0;
#X connect 64 0 38 0;
#X connect 65 0 55 0;
#X connect 66 0 3 0;
#X connect 70 0 69 0;
#X connect 72 0 71 0;
#X connect 73 0 69 0;
#X connect 74 0 69 0;
#X connect 75 0 69 0;
#X connect 76 0 69 0;
#X connect 77 0 69 0;
#X connect 78 0 69 0;
#X connect 83 0 84 0;
#X connect 85 0 86 0;
#X connect 87 0 66 0;
#X connect 88 0 13 0;
