#N canvas 430 38 815 647 10;
#X obj 34 116 s OSClives;
#X obj 334 595 s OSClives;
#X msg 33 96 send /clip/select \$1;
#X obj 33 61 hradio 15 1 0 40 empty empty empty 0 -6 0 8 -262144 -1
-1 35;
#X obj 513 431 s OSClives;
#X obj 516 389 i;
#X floatatom 514 353 5 0 0 0 - - -;
#X msg 515 409 send /video/set/fps \$1;
#X obj 512 331 s OSClives;
#X obj 516 286 i;
#X floatatom 516 268 5 0 0 0 - - -;
#X msg 513 308 send /clip/goto \$1;
#X text 574 287 frame number;
#X obj 560 120 s OSClives;
#X obj 564 42 tgl 15 0 empty empty empty 0 -6 0 8 -262144 -1 -1 0 1
;
#X obj 109 438 s OSClives;
#X msg 109 400 send /effect_key/enable \$1;
#X msg 111 419 send /effect_key/disable \$1;
#X floatatom 42 79 5 0 0 0 - - -;
#X obj 38 205 s OSClives;
#X floatatom 39 167 5 0 0 0 - - -;
#X msg 37 183 send /lives/swap \$1;
#N canvas 37 208 506 415 OSC 0;
#X obj 81 281 sendOSC;
#X msg 50 161 send /lives/quit;
#X obj 46 331 print OSCin;
#X obj 46 310 dumpOSC 7777;
#X msg 84 70 send /clip/count;
#X msg 171 225 disconnect;
#X msg 114 45 send /effect_key/count;
#X obj 80 257 r OSClives;
#X msg 99 114 send /app/open_status_socket 192.168.0.143 7777;
#X msg 103 204 connect 127.0.0.1 9999;
#X connect 1 0 0 0;
#X connect 3 0 2 0;
#X connect 4 0 0 0;
#X connect 5 0 0 0;
#X connect 6 0 0 0;
#X connect 7 0 0 0;
#X connect 8 0 0 0;
#X connect 9 0 0 0;
#X restore 32 34 pd OSC stuff;
#X text 8 134 have to load clips manually;
#X text 35 224 swap the front and back clips;
#X text 217 13 each effect key has certain modes;
#X obj 266 206 r km;
#X obj 302 235 s OSClives;
#X msg 298 205 send /effect_key/set/mode \$1 \$2;
#X obj 105 382 route 0 1;
#X obj 106 323 tgl 15 0 empty empty empty 0 -6 0 8 -262144 -1 -1 0
1;
#X obj 124 322 tgl 15 0 empty empty empty 0 -6 0 8 -262144 -1 -1 0
1;
#X obj 144 322 tgl 15 0 empty empty empty 0 -6 0 8 -262144 -1 -1 0
1;
#X obj 164 323 tgl 15 0 empty empty empty 0 -6 0 8 -262144 -1 -1 0
1;
#X obj 182 321 tgl 15 0 empty empty empty 0 -6 0 8 -262144 -1 -1 0
1;
#X obj 199 322 tgl 15 0 empty empty empty 0 -6 0 8 -262144 -1 -1 0
1;
#X obj 146 370 funnel 10;
#X obj 219 323 tgl 15 0 empty empty empty 0 -6 0 8 -262144 -1 -1 0
1;
#X obj 274 337 tgl 15 0 empty empty empty 0 -6 0 8 -262144 -1 -1 0
1;
#X msg 107 362 \$2 \$1;
#X msg 34 325 1;
#X obj 63 588 s OSClives;
#X msg 62 567 send /clip/set/start \$1;
#X floatatom 62 549 5 0 0 0 - - -;
#X obj 62 648 s OSClives;
#X floatatom 62 608 5 0 0 0 - - -;
#X msg 61 627 send /clip/set/end \$1;
#X obj 64 688 s OSClives;
#X msg 62 667 send /clip/play_selection;
#X obj 489 559 s OSClives;
#X msg 489 541 send /video/freeze;
#X text 579 557 FPS to zero;
#X obj 490 596 s OSClives;
#X msg 490 578 send /video/slower;
#X obj 489 633 s OSClives;
#X msg 489 615 send /video/faster;
#X text 568 385 up to about 80 \, then audio breaks;
#X text 585 370 do not make 0!;
#X obj 515 369 moses 1;
#X text 56 518 start and end points of selection;
#X text 57 530 in currently selected clip;
#X msg 359 565 send /video/stop;
#X msg 331 501 send /video/reverse;
#X msg 353 537 send /video/play;
#X text 143 687 not implemented;
#X obj 563 61 sel 0 1;
#X msg 562 99 send /output/fullscreen/disable;
#X msg 563 80 send /output/fullscreen/enable;
#X text 583 39 FULL SCREEN;
#X obj 209 33 cnv 15 320 125 empty empty empty 20 12 0 14 -211001 -66577
0;
#X obj 501 37 vradio 15 1 0 8 empty empty empty 0 -6 0 8 -262144 -1
-1 0;
#X msg 502 161 8 \$1;
#X obj 502 181 s km;
#X obj 460 38 vradio 15 1 0 8 empty empty empty 0 -6 0 8 -262144 -1
-1 0;
#X obj 461 182 s km;
#X obj 421 37 vradio 15 1 0 8 empty empty empty 0 -6 0 8 -262144 -1
-1 0;
#X obj 422 181 s km;
#X obj 380 38 vradio 15 1 0 8 empty empty empty 0 -6 0 8 -262144 -1
-1 0;
#X obj 381 182 s km;
#X obj 341 38 vradio 15 1 0 8 empty empty empty 0 -6 0 8 -262144 -1
-1 0;
#X obj 340 182 s km;
#X obj 298 39 vradio 15 1 0 8 empty empty empty 0 -6 0 8 -262144 -1
-1 0;
#X obj 299 183 s km;
#X obj 259 38 vradio 15 1 0 8 empty empty empty 0 -6 0 8 -262144 -1
-1 0;
#X obj 260 182 s km;
#X obj 217 39 vradio 15 1 0 8 empty empty empty 0 -6 0 8 -262144 -1
-1 0;
#X obj 219 183 s km;
#X msg 219 163 1 \$1;
#X msg 260 162 2 \$1;
#X msg 299 163 3 \$1;
#X msg 340 162 4 \$1;
#X msg 381 162 5 \$1;
#X msg 419 162 6 \$1;
#X msg 461 162 7 \$1;
#X obj 156 11 r clips;
#X floatatom 155 37 5 0 0 0 - - -;
#X obj 16 285 r e1;
#X obj 54 281 r e2;
#X obj 98 284 r e3;
#X obj 135 285 r e4;
#X obj 174 285 r e5;
#X obj 217 285 r e6;
#X obj 260 284 r e7;
#X obj 308 284 r e8;
#X text 51 317 comment;
#X obj 620 204 r controle;
#X obj 27 388 r parar;
#X obj 550 487 r playvideo;
#X connect 2 0 0 0;
#X connect 3 0 2 0;
#X connect 3 0 18 0;
#X connect 5 0 7 0;
#X connect 6 0 58 0;
#X connect 7 0 4 0;
#X connect 9 0 11 0;
#X connect 10 0 9 0;
#X connect 11 0 8 0;
#X connect 14 0 65 0;
#X connect 16 0 15 0;
#X connect 17 0 15 0;
#X connect 20 0 21 0;
#X connect 21 0 19 0;
#X connect 26 0 28 0;
#X connect 28 0 27 0;
#X connect 29 0 17 0;
#X connect 29 1 16 0;
#X connect 30 0 36 1;
#X connect 31 0 36 2;
#X connect 32 0 36 3;
#X connect 33 0 36 4;
#X connect 34 0 36 5;
#X connect 35 0 36 6;
#X connect 36 0 39 0;
#X connect 37 0 36 7;
#X connect 38 0 36 8;
#X connect 39 0 29 0;
#X connect 40 0 36 0;
#X connect 42 0 41 0;
#X connect 43 0 42 0;
#X connect 45 0 46 0;
#X connect 46 0 44 0;
#X connect 48 0 47 0;
#X connect 50 0 49 0;
#X connect 53 0 52 0;
#X connect 55 0 54 0;
#X connect 58 1 5 0;
#X connect 61 0 1 0;
#X connect 62 0 1 0;
#X connect 63 0 1 0;
#X connect 65 0 66 0;
#X connect 65 1 67 0;
#X connect 66 0 13 0;
#X connect 67 0 13 0;
#X connect 70 0 71 0;
#X connect 71 0 72 0;
#X connect 73 0 93 0;
#X connect 75 0 92 0;
#X connect 77 0 91 0;
#X connect 79 0 90 0;
#X connect 81 0 89 0;
#X connect 83 0 88 0;
#X connect 85 0 87 0;
#X connect 87 0 86 0;
#X connect 88 0 84 0;
#X connect 89 0 82 0;
#X connect 90 0 80 0;
#X connect 91 0 78 0;
#X connect 92 0 76 0;
#X connect 93 0 74 0;
#X connect 94 0 95 0;
#X connect 95 0 3 0;
#X connect 96 0 30 0;
#X connect 97 0 31 0;
#X connect 98 0 32 0;
#X connect 99 0 33 0;
#X connect 100 0 34 0;
#X connect 101 0 35 0;
#X connect 102 0 37 0;
#X connect 103 0 38 0;
#X connect 105 0 10 0;
#X connect 106 0 40 0;
#X connect 107 0 63 0;
