#N canvas 484 166 450 300 10;
#X obj 165 249 sendOSC;
#X msg 50 191 connect 127.0.0.1 9999;
#X msg 48 148 disconnect;
#X msg 262 23 send /video/play;
#X msg 263 63 send /video/stop;
#X msg 265 104 send /app/quit;
#X connect 1 0 0 0;
#X connect 2 0 0 0;
#X connect 3 0 0 0;
#X connect 4 0 0 0;
#X connect 5 0 0 0;
